<mxfile host="65bd71144e">
    <diagram id="hrjSotiqvtRgIpvF-8Yj" name="Page-1">
        <mxGraphModel dx="348" dy="1258" grid="1" gridSize="10" guides="1" tooltips="1" connect="1" arrows="1" fold="1" page="1" pageScale="1" pageWidth="850" pageHeight="1100" math="1" shadow="0">
            <root>
                <mxCell id="0"/>
                <mxCell id="1" parent="0"/>
                <mxCell id="2" value="" style="rounded=0;whiteSpace=wrap;html=1;strokeColor=#F0F0F0;fontSize=12;fillColor=#00CC00;opacity=10;strokeWidth=5;" parent="1" vertex="1">
                    <mxGeometry x="520" y="220" width="200" height="360" as="geometry"/>
                </mxCell>
                <mxCell id="3" value="" style="rounded=0;whiteSpace=wrap;html=1;strokeColor=default;fontSize=12;fillColor=#00CC00;opacity=10;strokeWidth=5;" parent="1" vertex="1">
                    <mxGeometry x="80" y="220" width="220" height="360" as="geometry"/>
                </mxCell>
                <mxCell id="4" value="" style="rounded=0;whiteSpace=wrap;html=1;strokeColor=default;fontSize=12;fillColor=#00CC00;opacity=10;strokeWidth=5;" parent="1" vertex="1">
                    <mxGeometry x="300" y="220" width="220" height="360" as="geometry"/>
                </mxCell>
                <mxCell id="5" style="edgeStyle=none;html=1;exitX=1;exitY=0.5;exitDx=0;exitDy=0;entryX=0;entryY=0.2;entryDx=0;entryDy=0;entryPerimeter=0;" parent="1" source="6" target="9" edge="1">
                    <mxGeometry relative="1" as="geometry"/>
                </mxCell>
                <mxCell id="6" value="&amp;gt;&amp;gt; 1" style="ellipse;whiteSpace=wrap;html=1;aspect=fixed;fillColor=none;" parent="1" vertex="1">
                    <mxGeometry x="100" y="380" width="40" height="40" as="geometry"/>
                </mxCell>
                <mxCell id="7" style="edgeStyle=none;html=1;exitX=1;exitY=0.2;exitDx=0;exitDy=0;entryX=0;entryY=0.5;entryDx=0;entryDy=0;exitPerimeter=0;" parent="1" source="9" target="20" edge="1">
                    <mxGeometry relative="1" as="geometry">
                        <mxPoint x="335" y="400" as="targetPoint"/>
                    </mxGeometry>
                </mxCell>
                <mxCell id="8" style="edgeStyle=orthogonalEdgeStyle;html=1;entryX=0.5;entryY=0;entryDx=0;entryDy=0;startArrow=oval;startFill=1;" parent="1" target="18" edge="1">
                    <mxGeometry relative="1" as="geometry">
                        <mxPoint x="260" y="400" as="sourcePoint"/>
                        <Array as="points">
                            <mxPoint x="260" y="450"/>
                            <mxPoint x="260" y="450"/>
                        </Array>
                    </mxGeometry>
                </mxCell>
                <mxCell id="9" value="EN" style="rounded=0;whiteSpace=wrap;html=1;fillColor=none;verticalAlign=top;points=[[0,0,0,0,0],[0,0.2,0,0,0],[0,0.25,0,0,0],[0,0.5,0,0,0],[0,0.75,0,0,0],[0,0.8,0,0,0],[0,1,0,0,0],[0.25,0,0,0,0],[0.25,1,0,0,0],[0.5,0,0,0,0],[0.5,1,0,0,0],[0.75,0,0,0,0],[0.75,1,0,0,0],[1,0,0,0,0],[1,0.2,0,0,0],[1,0.25,0,0,0],[1,0.5,0,0,0],[1,0.75,0,0,0],[1,0.8,0,0,0],[1,1,0,0,0]];" parent="1" vertex="1">
                    <mxGeometry x="180" y="360" width="40" height="200" as="geometry"/>
                </mxCell>
                <mxCell id="10" style="edgeStyle=none;html=1;exitX=1;exitY=0.8;exitDx=0;exitDy=0;entryX=0;entryY=0.5;entryDx=0;entryDy=0;exitPerimeter=0;" parent="1" source="9" target="18" edge="1">
                    <mxGeometry relative="1" as="geometry">
                        <mxPoint x="215" y="520" as="sourcePoint"/>
                    </mxGeometry>
                </mxCell>
                <mxCell id="11" value="" style="group" parent="1" vertex="1" connectable="0">
                    <mxGeometry x="20" y="380" width="40" height="40" as="geometry"/>
                </mxCell>
                <mxCell id="12" value="" style="rounded=0;whiteSpace=wrap;html=1;fillColor=none;" parent="11" vertex="1">
                    <mxGeometry width="40" height="40" as="geometry"/>
                </mxCell>
                <mxCell id="13" value="" style="endArrow=none;html=1;exitX=0;exitY=1;exitDx=0;exitDy=0;entryX=1;entryY=0;entryDx=0;entryDy=0;" parent="11" source="12" target="12" edge="1">
                    <mxGeometry width="50" height="50" relative="1" as="geometry">
                        <mxPoint x="20" y="-80" as="sourcePoint"/>
                        <mxPoint x="70" y="-130" as="targetPoint"/>
                    </mxGeometry>
                </mxCell>
                <mxCell id="14" value="" style="endArrow=none;html=1;exitX=0;exitY=0;exitDx=0;exitDy=0;entryX=1;entryY=1;entryDx=0;entryDy=0;" parent="11" source="12" target="12" edge="1">
                    <mxGeometry width="50" height="50" relative="1" as="geometry">
                        <mxPoint x="20" y="-80" as="sourcePoint"/>
                        <mxPoint x="70" y="-130" as="targetPoint"/>
                    </mxGeometry>
                </mxCell>
                <mxCell id="15" style="edgeStyle=none;html=1;exitX=1;exitY=0.5;exitDx=0;exitDy=0;entryX=0;entryY=0.5;entryDx=0;entryDy=0;" parent="1" source="12" target="6" edge="1">
                    <mxGeometry relative="1" as="geometry"/>
                </mxCell>
                <mxCell id="16" style="edgeStyle=orthogonalEdgeStyle;html=1;startArrow=oval;startFill=1;" parent="1" edge="1">
                    <mxGeometry relative="1" as="geometry">
                        <mxPoint x="70" y="400" as="sourcePoint"/>
                        <mxPoint x="175" y="520" as="targetPoint"/>
                        <Array as="points">
                            <mxPoint x="70" y="520"/>
                        </Array>
                    </mxGeometry>
                </mxCell>
                <mxCell id="17" style="edgeStyle=none;html=1;exitX=1;exitY=0.5;exitDx=0;exitDy=0;entryX=0;entryY=0.8;entryDx=0;entryDy=0;entryPerimeter=0;" parent="1" source="18" target="41" edge="1">
                    <mxGeometry relative="1" as="geometry">
                        <mxPoint x="415" y="520" as="targetPoint"/>
                    </mxGeometry>
                </mxCell>
                <mxCell id="18" value="^" style="ellipse;whiteSpace=wrap;html=1;aspect=fixed;fillColor=none;" parent="1" vertex="1">
                    <mxGeometry x="240" y="500" width="40" height="40" as="geometry"/>
                </mxCell>
                <mxCell id="19" style="edgeStyle=none;html=1;exitX=1;exitY=0.5;exitDx=0;exitDy=0;entryX=0;entryY=0.2;entryDx=0;entryDy=0;entryPerimeter=0;" parent="1" source="20" target="41" edge="1">
                    <mxGeometry relative="1" as="geometry">
                        <mxPoint x="415" y="400" as="targetPoint"/>
                    </mxGeometry>
                </mxCell>
                <mxCell id="20" value="&amp;gt;&amp;gt; 1" style="ellipse;whiteSpace=wrap;html=1;aspect=fixed;fillColor=none;" parent="1" vertex="1">
                    <mxGeometry x="320" y="380" width="40" height="40" as="geometry"/>
                </mxCell>
                <mxCell id="21" style="edgeStyle=none;html=1;exitX=1;exitY=0.2;exitDx=0;exitDy=0;entryX=0;entryY=0.5;entryDx=0;entryDy=0;exitPerimeter=0;" parent="1" source="41" target="27" edge="1">
                    <mxGeometry relative="1" as="geometry">
                        <mxPoint x="455" y="400" as="sourcePoint"/>
                        <mxPoint x="655" y="400" as="targetPoint"/>
                    </mxGeometry>
                </mxCell>
                <mxCell id="22" style="edgeStyle=orthogonalEdgeStyle;html=1;entryX=0.5;entryY=0;entryDx=0;entryDy=0;startArrow=oval;startFill=1;" parent="1" target="25" edge="1">
                    <mxGeometry relative="1" as="geometry">
                        <mxPoint x="460" y="400" as="sourcePoint"/>
                        <Array as="points">
                            <mxPoint x="460" y="400"/>
                        </Array>
                    </mxGeometry>
                </mxCell>
                <mxCell id="23" style="edgeStyle=none;html=1;exitX=1;exitY=0.8;exitDx=0;exitDy=0;entryX=0;entryY=0.5;entryDx=0;entryDy=0;exitPerimeter=0;" parent="1" source="41" target="25" edge="1">
                    <mxGeometry relative="1" as="geometry">
                        <mxPoint x="455" y="520" as="sourcePoint"/>
                    </mxGeometry>
                </mxCell>
                <mxCell id="24" style="edgeStyle=none;html=1;exitX=1;exitY=0.5;exitDx=0;exitDy=0;entryX=0;entryY=0.8;entryDx=0;entryDy=0;entryPerimeter=0;" parent="1" source="25" target="42" edge="1">
                    <mxGeometry relative="1" as="geometry">
                        <mxPoint x="655" y="520" as="targetPoint"/>
                    </mxGeometry>
                </mxCell>
                <mxCell id="25" value="^" style="ellipse;whiteSpace=wrap;html=1;aspect=fixed;fillColor=none;" parent="1" vertex="1">
                    <mxGeometry x="440" y="500" width="40" height="40" as="geometry"/>
                </mxCell>
                <mxCell id="26" style="edgeStyle=none;html=1;exitX=1;exitY=0.5;exitDx=0;exitDy=0;entryX=0;entryY=0.2;entryDx=0;entryDy=0;entryPerimeter=0;" parent="1" source="27" target="42" edge="1">
                    <mxGeometry relative="1" as="geometry">
                        <mxPoint x="675" y="400" as="sourcePoint"/>
                        <mxPoint x="835" y="400" as="targetPoint"/>
                    </mxGeometry>
                </mxCell>
                <mxCell id="27" value="&amp;gt;&amp;gt; 1" style="ellipse;whiteSpace=wrap;html=1;aspect=fixed;fillColor=none;" parent="1" vertex="1">
                    <mxGeometry x="540" y="380" width="40" height="40" as="geometry"/>
                </mxCell>
                <mxCell id="28" style="edgeStyle=orthogonalEdgeStyle;html=1;entryX=0.5;entryY=0;entryDx=0;entryDy=0;startArrow=none;startFill=0;rounded=1;exitX=1;exitY=0.2;exitDx=0;exitDy=0;exitPerimeter=0;" parent="1" source="42" target="31" edge="1">
                    <mxGeometry relative="1" as="geometry">
                        <mxPoint x="675" y="400" as="sourcePoint"/>
                        <Array as="points">
                            <mxPoint x="680" y="400"/>
                        </Array>
                    </mxGeometry>
                </mxCell>
                <mxCell id="29" style="edgeStyle=none;html=1;exitX=1;exitY=0.8;exitDx=0;exitDy=0;entryX=0;entryY=0.5;entryDx=0;entryDy=0;exitPerimeter=0;" parent="1" source="42" target="31" edge="1">
                    <mxGeometry relative="1" as="geometry">
                        <mxPoint x="875" y="520" as="sourcePoint"/>
                    </mxGeometry>
                </mxCell>
                <mxCell id="30" style="edgeStyle=orthogonalEdgeStyle;rounded=1;html=1;exitX=1;exitY=0.5;exitDx=0;exitDy=0;entryX=0;entryY=0.8;entryDx=0;entryDy=0;fontSize=12;startArrow=none;startFill=0;entryPerimeter=0;" parent="1" source="31" target="52" edge="1">
                    <mxGeometry relative="1" as="geometry">
                        <mxPoint x="835" y="460" as="targetPoint"/>
                        <Array as="points"/>
                    </mxGeometry>
                </mxCell>
                <mxCell id="31" value="^" style="ellipse;whiteSpace=wrap;html=1;aspect=fixed;fillColor=none;" parent="1" vertex="1">
                    <mxGeometry x="660" y="500" width="40" height="40" as="geometry"/>
                </mxCell>
                <mxCell id="32" style="edgeStyle=orthogonalEdgeStyle;rounded=1;html=1;exitX=1;exitY=0.5;exitDx=0;exitDy=0;entryX=0;entryY=0.5;entryDx=0;entryDy=0;fontSize=12;startArrow=none;startFill=0;exitPerimeter=0;" parent="1" source="52" target="54" edge="1">
                    <mxGeometry relative="1" as="geometry">
                        <mxPoint x="875" y="460" as="sourcePoint"/>
                        <mxPoint x="895" y="459.9999999999998" as="targetPoint"/>
                    </mxGeometry>
                </mxCell>
                <mxCell id="33" style="edgeStyle=orthogonalEdgeStyle;rounded=1;html=1;exitX=1;exitY=0.5;exitDx=0;exitDy=0;entryX=0;entryY=0.5;entryDx=0;entryDy=0;fontSize=12;startArrow=none;startFill=0;" parent="1" source="34" target="44" edge="1">
                    <mxGeometry relative="1" as="geometry"/>
                </mxCell>
                <mxCell id="34" value="RST" style="rounded=0;whiteSpace=wrap;html=1;fillColor=none;verticalAlign=top;" parent="1" vertex="1">
                    <mxGeometry x="180" y="240" width="40" height="80" as="geometry"/>
                </mxCell>
                <mxCell id="35" value="" style="group" parent="1" vertex="1" connectable="0">
                    <mxGeometry x="20" y="260" width="40" height="40" as="geometry"/>
                </mxCell>
                <mxCell id="36" value="" style="rounded=0;whiteSpace=wrap;html=1;fillColor=none;" parent="35" vertex="1">
                    <mxGeometry width="40" height="40" as="geometry"/>
                </mxCell>
                <mxCell id="37" value="" style="endArrow=none;html=1;exitX=0;exitY=1;exitDx=0;exitDy=0;entryX=1;entryY=0;entryDx=0;entryDy=0;" parent="35" source="36" target="36" edge="1">
                    <mxGeometry width="50" height="50" relative="1" as="geometry">
                        <mxPoint x="20" y="-80" as="sourcePoint"/>
                        <mxPoint x="70" y="-130" as="targetPoint"/>
                    </mxGeometry>
                </mxCell>
                <mxCell id="38" value="" style="endArrow=none;html=1;exitX=0;exitY=0;exitDx=0;exitDy=0;entryX=1;entryY=1;entryDx=0;entryDy=0;" parent="35" source="36" target="36" edge="1">
                    <mxGeometry width="50" height="50" relative="1" as="geometry">
                        <mxPoint x="20" y="-80" as="sourcePoint"/>
                        <mxPoint x="70" y="-130" as="targetPoint"/>
                    </mxGeometry>
                </mxCell>
                <mxCell id="39" style="edgeStyle=orthogonalEdgeStyle;rounded=1;html=1;exitX=1;exitY=0.5;exitDx=0;exitDy=0;entryX=0;entryY=0.5;entryDx=0;entryDy=0;fontSize=12;startArrow=none;startFill=0;" parent="1" source="36" target="34" edge="1">
                    <mxGeometry relative="1" as="geometry"/>
                </mxCell>
                <mxCell id="40" style="edgeStyle=orthogonalEdgeStyle;rounded=1;html=1;entryX=0.5;entryY=0;entryDx=0;entryDy=0;fontSize=12;startArrow=oval;startFill=1;" parent="1" target="9" edge="1">
                    <mxGeometry relative="1" as="geometry">
                        <mxPoint x="140" y="280" as="sourcePoint"/>
                        <Array as="points">
                            <mxPoint x="140" y="340"/>
                            <mxPoint x="200" y="340"/>
                        </Array>
                    </mxGeometry>
                </mxCell>
                <mxCell id="41" value="EN" style="rounded=0;whiteSpace=wrap;html=1;fillColor=none;verticalAlign=top;points=[[0,0,0,0,0],[0,0.2,0,0,0],[0,0.25,0,0,0],[0,0.5,0,0,0],[0,0.75,0,0,0],[0,0.8,0,0,0],[0,1,0,0,0],[0.25,0,0,0,0],[0.25,1,0,0,0],[0.5,0,0,0,0],[0.5,1,0,0,0],[0.75,0,0,0,0],[0.75,1,0,0,0],[1,0,0,0,0],[1,0.2,0,0,0],[1,0.25,0,0,0],[1,0.5,0,0,0],[1,0.75,0,0,0],[1,0.8,0,0,0],[1,1,0,0,0]];" parent="1" vertex="1">
                    <mxGeometry x="380" y="360" width="40" height="200" as="geometry"/>
                </mxCell>
                <mxCell id="42" value="EN" style="rounded=0;whiteSpace=wrap;html=1;fillColor=none;verticalAlign=top;points=[[0,0,0,0,0],[0,0.2,0,0,0],[0,0.25,0,0,0],[0,0.5,0,0,0],[0,0.75,0,0,0],[0,0.8,0,0,0],[0,1,0,0,0],[0.25,0,0,0,0],[0.25,1,0,0,0],[0.5,0,0,0,0],[0.5,1,0,0,0],[0.75,0,0,0,0],[0.75,1,0,0,0],[1,0,0,0,0],[1,0.2,0,0,0],[1,0.25,0,0,0],[1,0.5,0,0,0],[1,0.75,0,0,0],[1,0.8,0,0,0],[1,1,0,0,0]];" parent="1" vertex="1">
                    <mxGeometry x="600" y="360" width="40" height="200" as="geometry"/>
                </mxCell>
                <mxCell id="43" style="edgeStyle=orthogonalEdgeStyle;rounded=1;html=1;exitX=1;exitY=0.5;exitDx=0;exitDy=0;entryX=0;entryY=0.5;entryDx=0;entryDy=0;fontSize=12;startArrow=none;startFill=0;" parent="1" source="44" target="46" edge="1">
                    <mxGeometry relative="1" as="geometry"/>
                </mxCell>
                <mxCell id="44" value="RST" style="rounded=0;whiteSpace=wrap;html=1;fillColor=none;verticalAlign=top;" parent="1" vertex="1">
                    <mxGeometry x="380" y="240" width="40" height="80" as="geometry"/>
                </mxCell>
                <mxCell id="45" style="edgeStyle=orthogonalEdgeStyle;rounded=1;html=1;exitX=1;exitY=0.5;exitDx=0;exitDy=0;fontSize=12;startArrow=none;startFill=0;entryX=0;entryY=0.5;entryDx=0;entryDy=0;" parent="1" source="46" target="48" edge="1">
                    <mxGeometry relative="1" as="geometry">
                        <mxPoint x="1075" y="279.9565217391305" as="targetPoint"/>
                    </mxGeometry>
                </mxCell>
                <mxCell id="46" value="RST" style="rounded=0;whiteSpace=wrap;html=1;fillColor=none;verticalAlign=top;" parent="1" vertex="1">
                    <mxGeometry x="600" y="240" width="40" height="80" as="geometry"/>
                </mxCell>
                <mxCell id="47" style="edgeStyle=orthogonalEdgeStyle;rounded=1;html=1;exitX=1;exitY=0.5;exitDx=0;exitDy=0;entryX=0;entryY=0.5;entryDx=0;entryDy=0;fontSize=12;startArrow=none;startFill=0;" parent="1" source="48" target="58" edge="1">
                    <mxGeometry relative="1" as="geometry">
                        <mxPoint x="895" y="280" as="targetPoint"/>
                    </mxGeometry>
                </mxCell>
                <mxCell id="48" value="RST" style="rounded=0;whiteSpace=wrap;html=1;fillColor=none;verticalAlign=top;" parent="1" vertex="1">
                    <mxGeometry x="740" y="240" width="40" height="80" as="geometry"/>
                </mxCell>
                <mxCell id="49" style="edgeStyle=orthogonalEdgeStyle;rounded=1;html=1;entryX=0.5;entryY=0;entryDx=0;entryDy=0;fontSize=12;startArrow=oval;startFill=1;entryPerimeter=0;" parent="1" target="41" edge="1">
                    <mxGeometry relative="1" as="geometry">
                        <mxPoint x="340" y="280" as="sourcePoint"/>
                        <mxPoint x="395" y="360" as="targetPoint"/>
                        <Array as="points">
                            <mxPoint x="340" y="340"/>
                            <mxPoint x="400" y="340"/>
                        </Array>
                    </mxGeometry>
                </mxCell>
                <mxCell id="50" style="edgeStyle=orthogonalEdgeStyle;rounded=1;html=1;fontSize=12;startArrow=oval;startFill=1;entryX=0.5;entryY=0;entryDx=0;entryDy=0;entryPerimeter=0;" parent="1" target="42" edge="1">
                    <mxGeometry relative="1" as="geometry">
                        <mxPoint x="560" y="280" as="sourcePoint"/>
                        <mxPoint x="855" y="360" as="targetPoint"/>
                        <Array as="points">
                            <mxPoint x="560" y="340"/>
                            <mxPoint x="620" y="340"/>
                        </Array>
                    </mxGeometry>
                </mxCell>
                <mxCell id="51" style="edgeStyle=orthogonalEdgeStyle;rounded=1;html=1;fontSize=12;startArrow=oval;startFill=1;entryX=0.5;entryY=0;entryDx=0;entryDy=0;entryPerimeter=0;" parent="1" target="52" edge="1">
                    <mxGeometry relative="1" as="geometry">
                        <mxPoint x="700" y="280" as="sourcePoint"/>
                        <mxPoint x="855" y="360" as="targetPoint"/>
                        <Array as="points">
                            <mxPoint x="700" y="340"/>
                            <mxPoint x="760" y="340"/>
                        </Array>
                    </mxGeometry>
                </mxCell>
                <mxCell id="52" value="EN" style="rounded=0;whiteSpace=wrap;html=1;fillColor=none;verticalAlign=top;points=[[0,0,0,0,0],[0,0.2,0,0,0],[0,0.25,0,0,0],[0,0.5,0,0,0],[0,0.75,0,0,0],[0,0.8,0,0,0],[0,1,0,0,0],[0.25,0,0,0,0],[0.25,1,0,0,0],[0.5,0,0,0,0],[0.5,1,0,0,0],[0.75,0,0,0,0],[0.75,1,0,0,0],[1,0,0,0,0],[1,0.2,0,0,0],[1,0.25,0,0,0],[1,0.5,0,0,0],[1,0.75,0,0,0],[1,0.8,0,0,0],[1,1,0,0,0]];" parent="1" vertex="1">
                    <mxGeometry x="740" y="360" width="40" height="200" as="geometry"/>
                </mxCell>
                <mxCell id="53" value="" style="group" parent="1" vertex="1" connectable="0">
                    <mxGeometry x="800" y="440" width="40" height="40" as="geometry"/>
                </mxCell>
                <mxCell id="54" value="" style="rounded=0;whiteSpace=wrap;html=1;fillColor=none;" parent="53" vertex="1">
                    <mxGeometry width="40" height="40" as="geometry"/>
                </mxCell>
                <mxCell id="55" value="" style="endArrow=none;html=1;exitX=0;exitY=1;exitDx=0;exitDy=0;entryX=1;entryY=0;entryDx=0;entryDy=0;" parent="53" source="54" target="54" edge="1">
                    <mxGeometry width="50" height="50" relative="1" as="geometry">
                        <mxPoint x="20" y="-80" as="sourcePoint"/>
                        <mxPoint x="70" y="-130" as="targetPoint"/>
                    </mxGeometry>
                </mxCell>
                <mxCell id="56" value="" style="endArrow=none;html=1;exitX=0;exitY=0;exitDx=0;exitDy=0;entryX=1;entryY=1;entryDx=0;entryDy=0;" parent="53" source="54" target="54" edge="1">
                    <mxGeometry width="50" height="50" relative="1" as="geometry">
                        <mxPoint x="20" y="-80" as="sourcePoint"/>
                        <mxPoint x="70" y="-130" as="targetPoint"/>
                    </mxGeometry>
                </mxCell>
                <mxCell id="57" value="" style="group" parent="1" vertex="1" connectable="0">
                    <mxGeometry x="800" y="260" width="40" height="40" as="geometry"/>
                </mxCell>
                <mxCell id="58" value="" style="rounded=0;whiteSpace=wrap;html=1;fillColor=none;" parent="57" vertex="1">
                    <mxGeometry width="40" height="40" as="geometry"/>
                </mxCell>
                <mxCell id="59" value="" style="endArrow=none;html=1;exitX=0;exitY=1;exitDx=0;exitDy=0;entryX=1;entryY=0;entryDx=0;entryDy=0;" parent="57" source="58" target="58" edge="1">
                    <mxGeometry width="50" height="50" relative="1" as="geometry">
                        <mxPoint x="20" y="-80" as="sourcePoint"/>
                        <mxPoint x="70" y="-130" as="targetPoint"/>
                    </mxGeometry>
                </mxCell>
                <mxCell id="60" value="" style="endArrow=none;html=1;exitX=0;exitY=0;exitDx=0;exitDy=0;entryX=1;entryY=1;entryDx=0;entryDy=0;" parent="57" source="58" target="58" edge="1">
                    <mxGeometry width="50" height="50" relative="1" as="geometry">
                        <mxPoint x="20" y="-80" as="sourcePoint"/>
                        <mxPoint x="70" y="-130" as="targetPoint"/>
                    </mxGeometry>
                </mxCell>
                <mxCell id="61" value="" style="shape=curlyBracket;whiteSpace=wrap;html=1;rounded=1;labelPosition=left;verticalLabelPosition=middle;align=right;verticalAlign=middle;strokeColor=#FFFFFF;strokeWidth=1;fontSize=12;fillColor=none;rotation=-90;horizontal=1;" parent="1" vertex="1">
                    <mxGeometry x="390" y="270" width="20" height="640" as="geometry"/>
                </mxCell>
                <mxCell id="62" value="$$log_2{W}-1$$" style="text;html=1;strokeColor=none;fillColor=none;align=center;verticalAlign=middle;whiteSpace=wrap;rounded=0;strokeWidth=1;fontSize=16;" parent="1" vertex="1">
                    <mxGeometry x="340" y="600" width="120" height="40" as="geometry"/>
                </mxCell>
                <mxCell id="71" style="edgeStyle=orthogonalEdgeStyle;html=1;exitX=1;exitY=0.5;exitDx=0;exitDy=0;entryX=0;entryY=0.5;entryDx=0;entryDy=0;" parent="1" source="67" target="77" edge="1">
                    <mxGeometry relative="1" as="geometry">
                        <mxPoint x="250.32999999999993" y="60" as="targetPoint"/>
                        <Array as="points">
                            <mxPoint x="220" y="100"/>
                            <mxPoint x="220" y="60"/>
                        </Array>
                    </mxGeometry>
                </mxCell>
                <mxCell id="72" value="" style="edgeStyle=orthogonalEdgeStyle;html=1;exitX=1;exitY=0.5;exitDx=0;exitDy=0;entryX=0;entryY=0.5;entryDx=0;entryDy=0;fontSize=8;fontFamily=Lucida Console;labelBackgroundColor=none;" parent="1" source="67" target="79" edge="1">
                    <mxGeometry x="0.2362" y="-10" relative="1" as="geometry">
                        <mxPoint as="offset"/>
                        <mxPoint x="250.32999999999993" y="140" as="targetPoint"/>
                        <Array as="points">
                            <mxPoint x="220" y="100"/>
                            <mxPoint x="220" y="140"/>
                        </Array>
                    </mxGeometry>
                </mxCell>
                <mxCell id="67" value="" style="rounded=1;whiteSpace=wrap;html=1;fillColor=none;" parent="1" vertex="1">
                    <mxGeometry x="170" y="90" width="20" height="20" as="geometry"/>
                </mxCell>
                <mxCell id="73" value="$$ log_2(M)-1..0$$" style="text;html=1;strokeColor=none;fillColor=none;align=center;verticalAlign=middle;whiteSpace=wrap;rounded=0;fontSize=8;fontFamily=Lucida Console;" parent="1" vertex="1">
                    <mxGeometry x="90" y="90" width="80" height="20" as="geometry"/>
                </mxCell>
                <mxCell id="85" style="edgeStyle=orthogonalEdgeStyle;html=1;exitX=1;exitY=0.5;exitDx=0;exitDy=0;entryX=0;entryY=0.5;entryDx=0;entryDy=0;fontFamily=Lucida Console;fontSize=8;" parent="1" source="77" target="84" edge="1">
                    <mxGeometry relative="1" as="geometry"/>
                </mxCell>
                <mxCell id="77" value="gray2bin" style="rounded=1;whiteSpace=wrap;html=1;fillColor=none;" parent="1" vertex="1">
                    <mxGeometry x="240.33" y="40" width="59.67" height="40" as="geometry"/>
                </mxCell>
                <mxCell id="91" style="edgeStyle=orthogonalEdgeStyle;html=1;exitX=1;exitY=0.5;exitDx=0;exitDy=0;entryX=0;entryY=0.5;entryDx=0;entryDy=0;fontFamily=Lucida Console;fontSize=8;" parent="1" source="79" target="88" edge="1">
                    <mxGeometry relative="1" as="geometry"/>
                </mxCell>
                <mxCell id="79" value="gray2bin" style="rounded=1;whiteSpace=wrap;html=1;fillColor=none;" parent="1" vertex="1">
                    <mxGeometry x="240.33" y="120" width="59.67" height="40" as="geometry"/>
                </mxCell>
                <mxCell id="92" style="edgeStyle=orthogonalEdgeStyle;html=1;exitX=1;exitY=0.5;exitDx=0;exitDy=0;fontFamily=Lucida Console;fontSize=8;entryX=0;entryY=0.5;entryDx=0;entryDy=0;" parent="1" source="84" target="106" edge="1">
                    <mxGeometry relative="1" as="geometry">
                        <mxPoint x="610" y="60" as="targetPoint"/>
                        <Array as="points"/>
                    </mxGeometry>
                </mxCell>
                <mxCell id="84" value="-" style="rounded=1;whiteSpace=wrap;html=1;fillColor=none;" parent="1" vertex="1">
                    <mxGeometry x="330" y="50" width="20" height="20" as="geometry"/>
                </mxCell>
                <mxCell id="87" style="edgeStyle=orthogonalEdgeStyle;html=1;exitX=0.5;exitY=1;exitDx=0;exitDy=0;entryX=0.5;entryY=0;entryDx=0;entryDy=0;fontFamily=Lucida Console;fontSize=8;" parent="1" source="nhEqiVGQfO_3Ebb3-ZQX-109" target="84" edge="1">
                    <mxGeometry relative="1" as="geometry">
                        <mxPoint x="460" y="30" as="sourcePoint"/>
                    </mxGeometry>
                </mxCell>
                <mxCell id="95" style="edgeStyle=orthogonalEdgeStyle;html=1;exitX=1;exitY=0.5;exitDx=0;exitDy=0;entryX=0;entryY=0.5;entryDx=0;entryDy=0;fontFamily=Lucida Console;fontSize=8;" parent="1" source="88" target="94" edge="1">
                    <mxGeometry relative="1" as="geometry"/>
                </mxCell>
                <mxCell id="88" value="-" style="rounded=1;whiteSpace=wrap;html=1;fillColor=none;" parent="1" vertex="1">
                    <mxGeometry x="330" y="130" width="20" height="20" as="geometry"/>
                </mxCell>
                <mxCell id="90" style="edgeStyle=orthogonalEdgeStyle;html=1;exitX=0.5;exitY=1;exitDx=0;exitDy=0;entryX=0.5;entryY=0;entryDx=0;entryDy=0;fontFamily=Lucida Console;fontSize=8;" parent="1" source="89" target="88" edge="1">
                    <mxGeometry relative="1" as="geometry"/>
                </mxCell>
                <mxCell id="89" value="$$(\sqrt{M} - 1)/2$$" style="text;html=1;strokeColor=none;fillColor=none;align=center;verticalAlign=middle;whiteSpace=wrap;rounded=0;fontSize=8;fontFamily=Lucida Console;" parent="1" vertex="1">
                    <mxGeometry x="310" y="90" width="60" height="20" as="geometry"/>
                </mxCell>
                <mxCell id="99" style="edgeStyle=orthogonalEdgeStyle;html=1;exitX=1;exitY=0.5;exitDx=0;exitDy=0;entryX=0;entryY=0.5;entryDx=0;entryDy=0;fontFamily=Lucida Console;fontSize=12;fontColor=#FFFFFF;" parent="1" source="94" target="102" edge="1">
                    <mxGeometry relative="1" as="geometry">
                        <mxPoint x="610" y="105" as="targetPoint"/>
                    </mxGeometry>
                </mxCell>
                <mxCell id="94" value="&lt;span style=&quot;text-align: start;&quot;&gt;&lt;font face=&quot;Lucida Console&quot; style=&quot;font-size: 12px;&quot; color=&quot;#ffffff&quot;&gt;×&lt;/font&gt;&lt;/span&gt;" style="rounded=1;whiteSpace=wrap;html=1;fillColor=none;" parent="1" vertex="1">
                    <mxGeometry x="370" y="130" width="20" height="20" as="geometry"/>
                </mxCell>
                <mxCell id="97" style="edgeStyle=orthogonalEdgeStyle;html=1;exitX=0.5;exitY=1;exitDx=0;exitDy=0;entryX=0.5;entryY=0;entryDx=0;entryDy=0;fontFamily=Lucida Console;fontSize=12;fontColor=#FFFFFF;" parent="1" source="96" target="102" edge="1">
                    <mxGeometry relative="1" as="geometry"/>
                </mxCell>
                <mxCell id="96" value="$$D$$" style="text;html=1;strokeColor=none;fillColor=none;align=center;verticalAlign=middle;whiteSpace=wrap;rounded=0;fontSize=8;fontFamily=Lucida Console;" parent="1" vertex="1">
                    <mxGeometry x="410" y="90" width="20" height="20" as="geometry"/>
                </mxCell>
                <mxCell id="100" value="" style="rounded=1;whiteSpace=wrap;html=1;fillColor=none;" parent="1" vertex="1">
                    <mxGeometry x="450" y="50" width="20" height="20" as="geometry"/>
                </mxCell>
                <mxCell id="101" value="" style="rounded=1;whiteSpace=wrap;html=1;fillColor=none;" parent="1" vertex="1">
                    <mxGeometry x="450" y="130" width="20" height="20" as="geometry"/>
                </mxCell>
                <mxCell id="103" style="edgeStyle=orthogonalEdgeStyle;html=1;exitX=1;exitY=0.5;exitDx=0;exitDy=0;entryX=0;entryY=0.5;entryDx=0;entryDy=0;fontFamily=Lucida Console;fontSize=12;fontColor=#FFFFFF;" parent="1" source="102" target="101" edge="1">
                    <mxGeometry relative="1" as="geometry"/>
                </mxCell>
                <mxCell id="102" value="&lt;span style=&quot;text-align: start;&quot;&gt;&lt;font face=&quot;Lucida Console&quot; style=&quot;font-size: 12px;&quot; color=&quot;#ffffff&quot;&gt;×&lt;/font&gt;&lt;/span&gt;" style="rounded=1;whiteSpace=wrap;html=1;fillColor=none;" parent="1" vertex="1">
                    <mxGeometry x="410" y="130" width="20" height="20" as="geometry"/>
                </mxCell>
                <mxCell id="105" style="edgeStyle=orthogonalEdgeStyle;html=1;exitX=0.5;exitY=1;exitDx=0;exitDy=0;entryX=0.5;entryY=0;entryDx=0;entryDy=0;fontFamily=Lucida Console;fontSize=12;fontColor=#FFFFFF;" parent="1" source="104" target="94" edge="1">
                    <mxGeometry relative="1" as="geometry"/>
                </mxCell>
                <mxCell id="104" value="$$-1$$" style="text;html=1;strokeColor=none;fillColor=none;align=center;verticalAlign=middle;whiteSpace=wrap;rounded=0;fontSize=8;fontFamily=Lucida Console;" parent="1" vertex="1">
                    <mxGeometry x="370" y="90" width="20" height="20" as="geometry"/>
                </mxCell>
                <mxCell id="107" style="edgeStyle=orthogonalEdgeStyle;html=1;exitX=1;exitY=0.5;exitDx=0;exitDy=0;entryX=0;entryY=0.5;entryDx=0;entryDy=0;fontFamily=Lucida Console;fontSize=12;fontColor=#FFFFFF;" parent="1" source="106" target="100" edge="1">
                    <mxGeometry relative="1" as="geometry"/>
                </mxCell>
                <mxCell id="106" value="&lt;span style=&quot;text-align: start;&quot;&gt;&lt;font face=&quot;Lucida Console&quot; style=&quot;font-size: 12px;&quot; color=&quot;#ffffff&quot;&gt;×&lt;/font&gt;&lt;/span&gt;" style="rounded=1;whiteSpace=wrap;html=1;fillColor=none;" parent="1" vertex="1">
                    <mxGeometry x="410" y="50" width="20" height="20" as="geometry"/>
                </mxCell>
                <mxCell id="109" style="edgeStyle=orthogonalEdgeStyle;html=1;exitX=0.5;exitY=1;exitDx=0;exitDy=0;entryX=0.5;entryY=0;entryDx=0;entryDy=0;fontFamily=Lucida Console;fontSize=12;fontColor=#FFFFFF;" parent="1" source="108" target="106" edge="1">
                    <mxGeometry relative="1" as="geometry"/>
                </mxCell>
                <mxCell id="108" value="$$D$$" style="text;html=1;strokeColor=none;fillColor=none;align=center;verticalAlign=middle;whiteSpace=wrap;rounded=0;fontSize=8;fontFamily=Lucida Console;" parent="1" vertex="1">
                    <mxGeometry x="410" y="10" width="20" height="20" as="geometry"/>
                </mxCell>
                <mxCell id="nhEqiVGQfO_3Ebb3-ZQX-109" value="$$(\sqrt{M} - 1)/2$$" style="text;html=1;strokeColor=none;fillColor=none;align=center;verticalAlign=middle;whiteSpace=wrap;rounded=0;fontSize=8;fontFamily=Lucida Console;" parent="1" vertex="1">
                    <mxGeometry x="310" y="10" width="60" height="20" as="geometry"/>
                </mxCell>
                <mxCell id="nhEqiVGQfO_3Ebb3-ZQX-110" value="&lt;span style=&quot;font-family: &amp;quot;Lucida Console&amp;quot;; font-size: 8px;&quot;&gt;$$log_2(M)-1 \dots log_2(M)/2$$&lt;/span&gt;" style="text;html=1;strokeColor=none;fillColor=none;align=center;verticalAlign=middle;whiteSpace=wrap;rounded=0;" parent="1" vertex="1">
                    <mxGeometry x="120" y="40" width="100" height="20" as="geometry"/>
                </mxCell>
                <mxCell id="nhEqiVGQfO_3Ebb3-ZQX-111" value="&lt;span style=&quot;font-family: &amp;quot;Lucida Console&amp;quot;; font-size: 8px;&quot;&gt;$$log_2(M)/2-1 \dots 0$$&lt;/span&gt;" style="text;html=1;strokeColor=none;fillColor=none;align=center;verticalAlign=middle;whiteSpace=wrap;rounded=0;" parent="1" vertex="1">
                    <mxGeometry x="120" y="130" width="100" height="20" as="geometry"/>
                </mxCell>
                <mxCell id="111" value="$$&lt;br/&gt;\left\langle&lt;br/&gt;\left(&lt;br/&gt;\text{gray2bin} \left( \left\lfloor \frac{s}{\sqrt{M}} \right\rfloor + j \left( s \bmod \sqrt{M} \right) \right) - \frac{\sqrt{M} - 1}{2}&lt;br/&gt;\right)&lt;br/&gt;,&lt;br/&gt;(1 - j)&lt;br/&gt;\right\rangle&lt;br/&gt;\cdot D,&lt;br/&gt;\text{ where } s \in \{0, 1, 2, \ldots, M-1\}&lt;br/&gt;$$&lt;div style=&quot;&quot;&gt;&lt;/div&gt;" style="text;html=1;strokeColor=none;fillColor=none;align=center;verticalAlign=middle;whiteSpace=wrap;rounded=0;fontSize=8;fontFamily=Lucida Console;" parent="1" vertex="1">
                    <mxGeometry x="120" y="-40" width="400" height="40" as="geometry"/>
                </mxCell>
                <mxCell id="144" style="edgeStyle=none;html=1;exitX=1;exitY=0.5;exitDx=0;exitDy=0;entryX=0;entryY=0.5;entryDx=0;entryDy=0;" parent="1" source="114" target="117" edge="1">
                    <mxGeometry relative="1" as="geometry"/>
                </mxCell>
                <mxCell id="114" value="$$m()$$" style="rounded=1;whiteSpace=wrap;html=1;fillColor=none;fontSize=8;" parent="1" vertex="1">
                    <mxGeometry x="530" y="90" width="20" height="20" as="geometry"/>
                </mxCell>
                <mxCell id="117" value="$$gray2bin()$$" style="rounded=1;whiteSpace=wrap;html=1;fillColor=none;fontSize=8;" parent="1" vertex="1">
                    <mxGeometry x="570" y="90" width="60" height="20" as="geometry"/>
                </mxCell>
                <mxCell id="118" style="edgeStyle=orthogonalEdgeStyle;html=1;exitX=1;exitY=0.5;exitDx=0;exitDy=0;entryX=0;entryY=0.5;entryDx=0;entryDy=0;fontFamily=Lucida Console;fontSize=8;" parent="1" source="117" target="124" edge="1">
                    <mxGeometry relative="1" as="geometry">
                        <mxPoint x="690" y="140" as="sourcePoint"/>
                    </mxGeometry>
                </mxCell>
                <mxCell id="123" style="edgeStyle=orthogonalEdgeStyle;html=1;exitX=1;exitY=0.5;exitDx=0;exitDy=0;entryX=0;entryY=0.5;entryDx=0;entryDy=0;fontFamily=Lucida Console;fontSize=8;" parent="1" source="124" target="128" edge="1">
                    <mxGeometry relative="1" as="geometry"/>
                </mxCell>
                <mxCell id="124" value="-" style="rounded=1;whiteSpace=wrap;html=1;fillColor=none;fontSize=8;" parent="1" vertex="1">
                    <mxGeometry x="650" y="90" width="20" height="20" as="geometry"/>
                </mxCell>
                <mxCell id="125" style="edgeStyle=orthogonalEdgeStyle;html=1;exitX=0.5;exitY=1;exitDx=0;exitDy=0;entryX=0.5;entryY=0;entryDx=0;entryDy=0;fontFamily=Lucida Console;fontSize=8;" parent="1" source="126" target="124" edge="1">
                    <mxGeometry relative="1" as="geometry"/>
                </mxCell>
                <mxCell id="126" value="$$(\sqrt{M} - 1)/2$$" style="text;html=1;strokeColor=none;fillColor=none;align=center;verticalAlign=middle;whiteSpace=wrap;rounded=0;fontSize=8;fontFamily=Lucida Console;" parent="1" vertex="1">
                    <mxGeometry x="630" y="50" width="60" height="20" as="geometry"/>
                </mxCell>
                <mxCell id="127" style="edgeStyle=orthogonalEdgeStyle;html=1;exitX=1;exitY=0.5;exitDx=0;exitDy=0;entryX=0;entryY=0.5;entryDx=0;entryDy=0;fontFamily=Lucida Console;fontSize=12;fontColor=#FFFFFF;" parent="1" source="128" target="134" edge="1">
                    <mxGeometry relative="1" as="geometry">
                        <mxPoint x="970" y="65" as="targetPoint"/>
                    </mxGeometry>
                </mxCell>
                <mxCell id="128" value="&lt;span style=&quot;text-align: start; font-size: 8px;&quot;&gt;&lt;font face=&quot;Lucida Console&quot; style=&quot;font-size: 8px;&quot; color=&quot;#ffffff&quot;&gt;$$\langle \, ,\rangle$$&lt;/font&gt;&lt;/span&gt;" style="rounded=1;whiteSpace=wrap;html=1;fillColor=none;fontSize=8;" parent="1" vertex="1">
                    <mxGeometry x="690" y="90" width="20" height="20" as="geometry"/>
                </mxCell>
                <mxCell id="129" style="edgeStyle=orthogonalEdgeStyle;html=1;exitX=0.5;exitY=1;exitDx=0;exitDy=0;entryX=0.5;entryY=0;entryDx=0;entryDy=0;fontFamily=Lucida Console;fontSize=12;fontColor=#FFFFFF;" parent="1" source="130" target="134" edge="1">
                    <mxGeometry relative="1" as="geometry"/>
                </mxCell>
                <mxCell id="130" value="$$D$$" style="text;html=1;strokeColor=none;fillColor=none;align=center;verticalAlign=middle;whiteSpace=wrap;rounded=0;fontSize=8;fontFamily=Lucida Console;" parent="1" vertex="1">
                    <mxGeometry x="730" y="50" width="20" height="20" as="geometry"/>
                </mxCell>
                <mxCell id="132" value="" style="rounded=1;whiteSpace=wrap;html=1;fillColor=none;" parent="1" vertex="1">
                    <mxGeometry x="770" y="90" width="20" height="20" as="geometry"/>
                </mxCell>
                <mxCell id="133" style="edgeStyle=orthogonalEdgeStyle;html=1;exitX=1;exitY=0.5;exitDx=0;exitDy=0;entryX=0;entryY=0.5;entryDx=0;entryDy=0;fontFamily=Lucida Console;fontSize=12;fontColor=#FFFFFF;" parent="1" source="134" target="132" edge="1">
                    <mxGeometry relative="1" as="geometry"/>
                </mxCell>
                <mxCell id="134" value="&lt;span style=&quot;text-align: start; font-size: 8px;&quot;&gt;&lt;font face=&quot;Lucida Console&quot; style=&quot;font-size: 8px;&quot; color=&quot;#ffffff&quot;&gt;×&lt;/font&gt;&lt;/span&gt;" style="rounded=1;whiteSpace=wrap;html=1;fillColor=none;fontSize=8;" parent="1" vertex="1">
                    <mxGeometry x="730" y="90" width="20" height="20" as="geometry"/>
                </mxCell>
                <mxCell id="135" style="edgeStyle=orthogonalEdgeStyle;html=1;exitX=0.5;exitY=1;exitDx=0;exitDy=0;entryX=0.5;entryY=0;entryDx=0;entryDy=0;fontFamily=Lucida Console;fontSize=12;fontColor=#FFFFFF;" parent="1" source="136" target="128" edge="1">
                    <mxGeometry relative="1" as="geometry"/>
                </mxCell>
                <mxCell id="136" value="$$1-j$$" style="text;html=1;strokeColor=none;fillColor=none;align=center;verticalAlign=middle;whiteSpace=wrap;rounded=0;fontSize=8;fontFamily=Lucida Console;" parent="1" vertex="1">
                    <mxGeometry x="690" y="50" width="20" height="20" as="geometry"/>
                </mxCell>
            </root>
        </mxGraphModel>
    </diagram>
</mxfile>